<svg id="Layer_1" data-name="Layer 1" xmlns="http://www.w3.org/2000/svg" viewBox="0 0 512 512"><defs><style>.cls-1{fill:#1e2251;}</style></defs><title>001-Forage-de-puits-artesien</title><path class="cls-1" d="M500.7,68.5H414a10.31,10.31,0,0,0,0,20.62H490.4V490.65h-469V89.12H97.84a10.31,10.31,0,0,0,0-20.62H11.09A10.31,10.31,0,0,0,.78,78.81V501a10.31,10.31,0,0,0,10.31,10.31H500.7A10.31,10.31,0,0,0,511,501V78.81A10.31,10.31,0,0,0,500.7,68.5Z"/><circle class="cls-1" cx="118.05" cy="256.15" r="15.46" transform="translate(-55.69 33.98) rotate(-13.28)"/><circle class="cls-1" cx="393.73" cy="256.15" r="15.46" transform="translate(-48.32 97.31) rotate(-13.28)"/><circle class="cls-1" cx="79.8" cy="356" r="15.46" transform="translate(-55.99 17.38) rotate(-9.22)"/><circle class="cls-1" cx="431.99" cy="356" r="15.46" transform="translate(-62.23 618.87) rotate(-67.5)"/><circle class="cls-1" cx="79.8" cy="154.59" r="15.46" transform="translate(-85.94 101.71) rotate(-45)"/><circle class="cls-1" cx="431.99" cy="154.59" r="15.46" transform="translate(17.21 350.74) rotate(-45)"/><circle class="cls-1" cx="174.29" cy="431.56" r="15.46"/><circle class="cls-1" cx="337.5" cy="431.56" r="15.46" transform="translate(-90.13 89.09) rotate(-13.28)"/><path class="cls-1" d="M169.49,352.24l81.61,42.92a10.26,10.26,0,0,0,9.59,0l81.61-42.92a10.33,10.33,0,0,0,5.5-9.13v-35.7a10.31,10.31,0,0,0-10.3-10.31H298.42V220.87L340.71,207a10.31,10.31,0,0,0-6.42-19.59l-35.87,11.76V145l42.29-13.86a10.31,10.31,0,0,0-6.42-19.59l-35.87,11.76V69.07l42.29-13.86a10.31,10.31,0,0,0-6.42-19.59L298.42,47.38v-36a10.31,10.31,0,1,0-20.62,0v42.8L234,68.5V11.34a10.31,10.31,0,1,0-20.61,0V75.25l-42.3,13.87a10.3,10.3,0,1,0,6.42,19.58L213.38,97v54.2L171.08,165a10.31,10.31,0,1,0,6.42,19.59l35.88-11.76v54.21l-42.3,13.86a10.31,10.31,0,0,0,6.42,19.59l35.88-11.76V297.1H174.29A10.32,10.32,0,0,0,164,307.41v35.7A10.34,10.34,0,0,0,169.49,352.24Zm64.5-262L277.8,75.83V130L234,144.39Zm0,75.9,43.81-14.36v54.2L234,220.29ZM234,242l43.81-14.36V297.1H234ZM184.6,317.72H327.19v19.17l-71.29,37.5-71.3-37.5Z"/></svg>