<svg id="Layer_1" data-name="Layer 1" xmlns="http://www.w3.org/2000/svg" viewBox="0 0 512 512"><defs><style>.cls-1{fill:none;stroke:#1e2251;stroke-linecap:round;stroke-linejoin:round;stroke-width:18px;}</style></defs><title>002-</title><polyline class="cls-1" points="202.13 70.83 202.13 17.59 305.31 17.59 305.31 70.83"/><polygon class="cls-1" points="347.82 149.74 347.82 107.9 305.31 70.83 202.13 70.83 159.61 107.9 159.61 149.74 347.82 149.74"/><line class="cls-1" x1="63.23" y1="231.67" x2="81.96" y2="231.67"/><line class="cls-1" x1="133.46" y1="231.67" x2="152.19" y2="231.67"/><line class="cls-1" x1="98.34" y1="270.03" x2="117.08" y2="270.03"/><line class="cls-1" x1="355.24" y1="231.67" x2="373.98" y2="231.67"/><line class="cls-1" x1="425.47" y1="231.67" x2="444.21" y2="231.67"/><line class="cls-1" x1="390.36" y1="270.03" x2="409.09" y2="270.03"/><polyline class="cls-1" points="491.36 309.8 491.36 187.76 416.64 187.76 382.42 149.74 308.09 149.74 308.09 309.8"/><polyline class="cls-1" points="16.08 309.8 16.08 187.76 90.8 187.76 125.02 149.74 199.34 149.74 199.34 309.8"/><line class="cls-1" x1="253.72" y1="149.74" x2="253.72" y2="493.45"/><line class="cls-1" x1="107.71" y1="493.07" x2="199.34" y2="401.43"/><line class="cls-1" x1="199.34" y1="309.8" x2="16.08" y2="493.07"/><line class="cls-1" x1="107.71" y1="309.8" x2="16.08" y2="401.44"/><rect class="cls-1" x="16.08" y="309.8" width="183.26" height="183.26"/><line class="cls-1" x1="399.72" y1="493.07" x2="491.36" y2="401.43"/><line class="cls-1" x1="491.36" y1="309.8" x2="308.09" y2="493.07"/><line class="cls-1" x1="399.72" y1="309.8" x2="308.09" y2="401.44"/><rect class="cls-1" x="308.09" y="309.8" width="183.26" height="183.26"/></svg>