<svg id="Layer_1" data-name="Layer 1" xmlns="http://www.w3.org/2000/svg" viewBox="0 0 512 512"><defs><style>.cls-1{fill:#1e2251;}</style></defs><title>003-inspection-reparation-de-puits</title><path class="cls-1" d="M108,378.35H79.13a9.71,9.71,0,0,0,0,19.41H108a9.71,9.71,0,1,0,0-19.41Z"/><path class="cls-1" d="M171.73,431.15h-28.9a9.71,9.71,0,1,0,0,19.41h28.9a9.71,9.71,0,0,0,0-19.41Z"/><path class="cls-1" d="M402.47,397.76h28.9a9.71,9.71,0,1,0,0-19.41h-28.9a9.71,9.71,0,0,0,0,19.41Z"/><path class="cls-1" d="M329.07,440.85a9.71,9.71,0,0,0,9.71,9.71h28.9a9.71,9.71,0,0,0,0-19.41h-28.9A9.7,9.7,0,0,0,329.07,440.85Z"/><path class="cls-1" d="M255.25,193.27a9.71,9.71,0,0,0,7.46-3.5c6.57-7.89,64.13-78.14,64.13-114.77a71.59,71.59,0,0,0-143.17,0c0,36.63,57.56,106.88,64.12,114.77A9.72,9.72,0,0,0,255.25,193.27Zm0-170.44A52.23,52.23,0,0,1,307.42,75c0,20-29.46,64.22-52.17,93.11C232.54,139.23,203.08,95.05,203.08,75A52.24,52.24,0,0,1,255.25,22.83Z"/><path class="cls-1" d="M113,252.2c.28.09.59.17.9.24a9.86,9.86,0,0,0,2.4.3,9.71,9.71,0,0,0,7.62-3.69,69.92,69.92,0,0,1,80.83-21.54,9.7,9.7,0,0,0,11.64-14.46c-16-23.56-46.28-64.13-69.49-71.26A57.75,57.75,0,0,0,113,252.2ZM93.34,185.75a38.38,38.38,0,0,1,36.6-27.1,38.52,38.52,0,0,1,11.3,1.7c10.56,3.24,28,21.74,44.24,43a89.58,89.58,0,0,0-72.09,28.24,38.34,38.34,0,0,1-20-45.81Z"/><path class="cls-1" d="M294.55,224.59a9.7,9.7,0,0,0,11.17,2.92,69.92,69.92,0,0,1,80.84,21.55,9.71,9.71,0,0,0,7.61,3.68,9.86,9.86,0,0,0,2.4-.3c.31-.07.62-.15.91-.24a57.75,57.75,0,0,0-33.91-110.41c-23.2,7.13-53.5,47.7-69.49,71.26A9.7,9.7,0,0,0,294.55,224.59Zm74.72-64.24a38.34,38.34,0,0,1,27.85,71.21A88.36,88.36,0,0,0,352,205.42a89.39,89.39,0,0,0-20.32-2.35c-2.21,0-4.42.08-6.61.25C341.29,182.09,358.71,163.59,369.27,160.35Z"/><path class="cls-1" d="M485.78,315.91H357.08l-32.46-45.49a9.7,9.7,0,0,0-7.9-4.06H193.78a9.71,9.71,0,0,0-7.9,4.06l-32.45,45.49H24.73a9.7,9.7,0,0,0-9.71,9.7V498.44a9.71,9.71,0,0,0,9.71,9.71H485.78a9.7,9.7,0,0,0,9.7-9.71V325.61A9.7,9.7,0,0,0,485.78,315.91ZM34.43,335.32h124a9.71,9.71,0,0,0,7.9-4.07l32.46-45.48h17.65v203h-182ZM235.84,488.74v-203h38.82v203Zm240.23,0h-182v-203h17.64l32.46,45.48a9.71,9.71,0,0,0,7.9,4.07h124Z"/></svg>